HIERARCHY
ROOT Hip
{
	OFFSET 0 1.131 0.0052
	CHANNELS 6 Xposition Yposition Zposition Xrotation Yrotation Zrotation
	JOINT Abdomen
	{
		OFFSET 0 -0.047353 -0.05
		CHANNELS 3 Xrotation Zrotation Yrotation
		JOINT Chest
		{
			OFFSET 0 0.132153 0.007439
			CHANNELS 3 Xrotation Zrotation Yrotation
			JOINT Neck
			{
				OFFSET 0 0.3078 0.006161
				CHANNELS 3 Xrotation Zrotation Yrotation
				JOINT Head_comp
				{
					OFFSET 0 0.0884 0.013
					CHANNELS 3 Xrotation Yrotation Zrotation
					End Site
					{
						OFFSET -0 0.156 0.0624
					}
				}
			}
			JOINT Left_Collar
			{
				OFFSET 0.02282 0.250342 0.017193
				CHANNELS 2 Yrotation Zrotation
				JOINT Left_Shoulder
				{
					OFFSET 0.15421 0 0
					CHANNELS 3 Xrotation Yrotation Zrotation
					JOINT Left_Forearm
					{
						OFFSET 0.265212 0 0
						CHANNELS 2 Yrotation Xrotation
						JOINT Left_Hand
						{
							OFFSET 0.27571 0 0
							CHANNELS 2 Zrotation Yrotation
							JOINT L1ProxPhalanx
							{
								OFFSET 0.014142 0.001733 0.014142
								CHANNELS 3 Yrotation Zrotation Xrotation
								JOINT L1MidPhalanx
								{
									OFFSET 0.04 0 0
									CHANNELS 1 Zrotation
									JOINT L1DistPhalanx
									{
										OFFSET 0.035 0 0
										CHANNELS 1 Zrotation
										End Site
										{
											OFFSET 0.029 -0 -0
										}
									}
								}
							}
							JOINT L2ProxPhalanx
							{
								OFFSET 0.0821037 0.001578 0.0219996
								CHANNELS 2 Yrotation Zrotation
								JOINT L2MidPhalanx
								{
									OFFSET 0.04 0 0
									CHANNELS 1 Zrotation
									JOINT L2DistPhalanx
									{
										OFFSET 0.028 0 0
										CHANNELS 1 Zrotation
										End Site
										{
											OFFSET 0.02 -0 -0
										}
									}
								}
							}
							JOINT L3ProxPhalanx
							{
								OFFSET 0.083 0 0
								CHANNELS 2 Yrotation Zrotation
								JOINT L3MidPhalanx
								{
									OFFSET 0.053 0 0
									CHANNELS 1 Zrotation
									JOINT L3DistPhalanx
									{
										OFFSET 0.03 0 0
										CHANNELS 1 Zrotation
										End Site
										{
											OFFSET 0.023 -0 -0
										}
									}
								}
							}
							JOINT L4ProxPhalanx
							{
								OFFSET 0.077274 -0.000761 -0.0207055
								CHANNELS 2 Yrotation Zrotation
								JOINT L4MidPhalanx
								{
									OFFSET 0.05 0 0
									CHANNELS 1 Zrotation
									JOINT L4DistPhalanx
									{
										OFFSET 0.03 0 0
										CHANNELS 1 Zrotation
										End Site
										{
											OFFSET 0.023 -0 -0
										}
									}
								}
							}
							JOINT L5ProxPhalanx
							{
								OFFSET 0.0675499 -0.001644 -0.039
								CHANNELS 2 Yrotation Zrotation
								JOINT L5MidPhalanx
								{
									OFFSET 0.04 0 0
									CHANNELS 1 Zrotation
									JOINT L5DistPhalanx
									{
										OFFSET 0.021 0 0
										CHANNELS 1 Zrotation
										End Site
										{
											OFFSET 0.022 -0 -0
										}
									}
								}
							}
						}
					}
				}
			}
			JOINT Right_Collar
			{
				OFFSET -0.02282 0.250342 0.017193
				CHANNELS 2 Yrotation Zrotation
				JOINT Right_Shoulder
				{
					OFFSET -0.15421 0 0
					CHANNELS 3 Xrotation Yrotation Zrotation
					JOINT Right_Forearm
					{
						OFFSET -0.265212 0 0
						CHANNELS 2 Yrotation Xrotation
						JOINT Right_Hand
						{
							OFFSET -0.27571 3e-006 0
							CHANNELS 2 Zrotation Yrotation
							JOINT R1ProxPhalanx
							{
								OFFSET -0.014142 0.001733 0.014142
								CHANNELS 3 Yrotation Zrotation Xrotation
								JOINT R1MidPhalanx
								{
									OFFSET -0.04 0 0
									CHANNELS 1 Zrotation
									JOINT R1DistPhalanx
									{
										OFFSET -0.035 0 0
										CHANNELS 1 Zrotation
										End Site
										{
											OFFSET -0.029 -0 -0
										}
									}
								}
							}
							JOINT R2ProxPhalanx
							{
								OFFSET -0.0821037 0.001578 0.0219996
								CHANNELS 2 Yrotation Zrotation
								JOINT R2MidPhalanx
								{
									OFFSET -0.04 0 0
									CHANNELS 1 Zrotation
									JOINT R2DistPhalanx
									{
										OFFSET -0.028 0 0
										CHANNELS 1 Zrotation
										End Site
										{
											OFFSET -0.02 -0 -0
										}
									}
								}
							}
							JOINT R3ProxPhalanx
							{
								OFFSET -0.083 0 0
								CHANNELS 2 Yrotation Zrotation
								JOINT R3MidPhalanx
								{
									OFFSET -0.053 0 0
									CHANNELS 1 Zrotation
									JOINT R3DistPhalanx
									{
										OFFSET -0.03 0 0
										CHANNELS 1 Zrotation
										End Site
										{
											OFFSET -0.023 -0 -0
										}
									}
								}
							}
							JOINT R4ProxPhalanx
							{
								OFFSET -0.077274 -0.000761 -0.0207055
								CHANNELS 2 Yrotation Zrotation
								JOINT R4MidPhalanx
								{
									OFFSET -0.05 0 0
									CHANNELS 1 Zrotation
									JOINT R4DistPhalanx
									{
										OFFSET -0.03 0 0
										CHANNELS 1 Zrotation
										End Site
										{
											OFFSET -0.023 -0 -0
										}
									}
								}
							}
							JOINT R5ProxPhalanx
							{
								OFFSET -0.0675499 -0.001644 -0.039
								CHANNELS 2 Yrotation Zrotation
								JOINT R5MidPhalanx
								{
									OFFSET -0.04 0 0
									CHANNELS 1 Zrotation
									JOINT R5DistPhalanx
									{
										OFFSET -0.021 0 0
										CHANNELS 1 Zrotation
										End Site
										{
											OFFSET -0.022 -0 -0
										}
									}
								}
							}
						}
					}
				}
			}
		}
	}
	JOINT Left_Thigh
	{
		OFFSET 0.1118 -0.1612 -0.0442
		CHANNELS 3 Xrotation Zrotation Yrotation
		JOINT Left_Shin
		{
			OFFSET 0 -0.477856 0
			CHANNELS 1 Xrotation
			JOINT Left_Foot
			{
				OFFSET 0 -0.431952 0
				CHANNELS 2 Xrotation Zrotation
				JOINT Left_Toe
				{
					OFFSET 0 -0.0442 0.119
					CHANNELS 1 Xrotation
					End Site
					{
						OFFSET -0 -0 0.07
					}
				}
			}
		}
	}
	JOINT Right_Thigh
	{
		OFFSET -0.1118 -0.1612 -0.0442
		CHANNELS 3 Xrotation Zrotation Yrotation
		JOINT Right_Shin
		{
			OFFSET 0 -0.477856 0
			CHANNELS 1 Xrotation
			JOINT Right_Foot
			{
				OFFSET 0 -0.431952 0
				CHANNELS 2 Xrotation Zrotation
				JOINT Right_Toe
				{
					OFFSET 0 -0.0442 0.119
					CHANNELS 1 Xrotation
					End Site
					{
						OFFSET -0 -0 0.07
					}
				}
			}
		}
	}
}
MOTION
Frames: 13
Frame Time: 0.009975
-0.103274 -0.0600389 0.0354354 -1.98525e-012 -2.042e-008 -5.10951e-006 0 -0 0 0 -0 0 0 -0 0 -0.711652 0.296124 -8.60541e-013 -12.5048 -6.93065 -42.9708 -12.4395 -23.0426 -21.9875 -4.35224 33.2521 1.21656 -26.7202 -55.8716 121.097 -5.72431 -5.68838 8.21043 -5.12774 -14.9148 -16.8422 4.95093 1.14861 -7.19864 -6.66843 -1.66284 2.65904 -9.97926 -1.52928 2.21815 5.74453 -57.0006 42.7357 5.92898 16.1097 -31.3912 11.2164 30.3482 40.1304 -5.86582 -40.0933 1.37622 26.7311 59.2888 120.334 9.99237 9.86718 -5.61958 15.4254 16.8361 17.5749 -3.3151 3.57531 9.40317 8.11061 2.43377 3.22573 16.2252 4.80875 -0.280151 -0.127595 46.6744 -20.654 -0.2359 -0.536929 0.00221069 0.0240216 0.211868 0.536938 0 -0.224495 -0.536929 0.00210381 1.70755e-006 0.224483 0.536938 0 
-0.103298 -0.0600382 0.0355818 3.38811e-012 -1.96161e-008 -5.10951e-006 0 -0 0 0 -0 0 0 -0 0 -0.71166 0.296181 -1.14647e-012 -12.5048 -6.93065 -42.9708 -12.4395 -23.0426 -21.9875 -4.35224 33.2521 1.21656 -26.7202 -55.8716 121.097 -5.72431 -5.68838 8.21043 -5.12774 -14.9148 -16.8422 4.95093 1.14861 -7.19864 -6.66843 -1.66284 2.65904 -9.97926 -1.52928 2.21815 5.74453 -57.0006 42.7357 5.87535 15.9978 -30.5982 10.4491 30.457 41.7156 -5.81276 -39.7306 1.36377 27.0005 58.537 119.213 10.3829 10.3137 -5.16923 15.4925 17.129 17.6244 -3.23543 4.02861 9.96105 8.59164 2.16781 3.88618 16.6093 5.26432 -0.46163 0.518049 46.3975 -19.4361 -0.22668 -0.535431 0.00211836 0.0240216 0.202648 0.53544 0 -0.215275 -0.535431 0.00201179 2.41484e-006 0.215263 0.53544 0 
-0.103326 -0.0600373 0.0357352 1.84339e-012 -1.8771e-008 -5.10951e-006 0 -0 0 0 -0 0 0 -0 0 -0.711668 0.296252 -1.44389e-012 -12.5048 -6.93065 -42.9708 -12.4395 -23.0426 -21.9875 -4.35224 33.2521 1.21656 -26.7202 -55.8716 121.097 -5.72431 -5.68838 8.21043 -5.12774 -14.9148 -16.8422 4.95093 1.14861 -7.19864 -6.66843 -1.66284 2.65904 -9.97926 -1.52928 2.21815 5.74453 -57.0006 42.7357 5.818 15.8784 -29.767 9.67019 30.5911 43.3297 -5.75603 -39.3428 1.35046 27.2699 57.7852 118.093 10.7734 10.7603 -4.71888 15.5596 17.422 17.6739 -3.15575 4.48192 10.5189 9.07267 1.90186 4.54664 16.9934 5.71989 -0.64311 1.16369 46.1205 -18.2182 -0.217015 -0.533659 0.00202134 0.0240216 0.192984 0.533668 0 -0.205611 -0.533659 0.00191512 1.43706e-006 0.205601 0.533668 0 
-0.103358 -0.0600365 0.0358952 -3.21018e-012 -1.78876e-008 -5.10951e-006 0 -0 0 0 -0 0 0 -0 0 -0.711677 0.296336 -1.75331e-012 -12.5048 -6.93065 -42.9708 -12.4395 -23.0426 -21.9875 -4.35224 33.2521 1.21656 -26.7202 -55.8716 121.097 -5.72431 -5.68838 8.21043 -5.12774 -14.9148 -16.8422 4.95093 1.14861 -7.19864 -6.66843 -1.66284 2.65904 -9.97926 -1.52928 2.21815 5.74453 -57.0006 42.7357 5.75714 15.7518 -28.9002 8.88495 30.7507 44.9629 -5.69581 -38.9312 1.33633 27.5392 57.0334 116.972 11.1639 11.2069 -4.26853 15.6267 17.7149 17.7235 -3.07607 4.93522 11.0768 9.5537 1.6359 5.2071 17.3775 6.17546 -0.824589 1.80934 45.8436 -17.0003 -0.20694 -0.531618 0.00192014 0.0240216 0.18291 0.531627 0 -0.195535 -0.531618 0.00181432 8.36698e-007 0.195526 0.531627 0 
-0.103395 -0.0600356 0.0360612 -2.82554e-012 -1.69689e-008 -5.10952e-006 0 -0 0 0 -0 0 0 -0 0 -0.711686 0.296433 -2.07465e-012 -12.5048 -6.93065 -42.9708 -12.4395 -23.0426 -21.9875 -4.35224 33.2521 1.21656 -26.7202 -55.8716 121.097 -5.72431 -5.68838 8.21043 -5.12774 -14.9148 -16.8422 4.95093 1.14861 -7.19864 -6.66843 -1.66284 2.65904 -9.97926 -1.52928 2.21815 5.74453 -57.0006 42.7357 5.69292 15.6184 -28 8.09794 30.9362 46.6072 -5.63228 -38.497 1.32143 27.8086 56.2816 115.851 11.5545 11.6534 -3.81817 15.6938 18.0079 17.773 -2.99639 5.38853 11.6347 10.0347 1.36994 5.86756 17.7615 6.63103 -1.00607 2.45498 45.5667 -15.7823 -0.196485 -0.529314 0.00181524 0.0240216 0.172455 0.529322 0 -0.18508 -0.529314 0.00170987 1.70755e-006 0.18507 0.529322 0 
-0.103436 -0.0600347 0.0362328 1.61514e-012 -1.60174e-008 -5.10952e-006 0 -0 0 0 -0 0 0 -0 0 -0.711695 0.296542 -2.40543e-012 -12.5048 -6.93065 -42.9708 -12.4395 -23.0426 -21.9875 -4.35224 33.2521 1.21656 -26.7202 -55.8716 121.097 -5.72431 -5.68838 8.21043 -5.12774 -14.9148 -16.8422 4.95093 1.14861 -7.19864 -6.66843 -1.66284 2.65904 -9.97926 -1.52928 2.21815 5.74453 -57.0006 42.7357 5.62553 15.4786 -27.0682 7.31321 31.1477 48.2556 -5.5656 -38.0413 1.30578 28.078 55.5298 114.73 11.945 12.1 -3.36782 15.7609 18.3008 17.8225 -2.91672 5.84183 12.1926 10.5158 1.10399 6.52802 18.1456 7.0866 -1.18755 3.10063 45.2898 -14.5644 -0.185676 -0.526751 0.00170709 0.0240216 0.161647 0.526759 0 -0.174272 -0.526751 0.00160224 2.25274e-006 0.174262 0.526759 0 
-0.10348 -0.0600337 0.0364097 -1.57917e-012 -1.50355e-008 -5.10952e-006 0 -0 0 0 -0 0 0 -0 0 -0.711705 0.296662 -2.74502e-012 -12.5048 -6.93065 -42.9708 -12.4395 -23.0426 -21.9875 -4.35224 33.2521 1.21656 -26.7202 -55.8716 121.097 -5.72431 -5.68838 8.21043 -5.12774 -14.9148 -16.8422 4.95093 1.14861 -7.19864 -6.66843 -1.66284 2.65904 -9.97926 -1.52928 2.21815 5.74453 -57.0006 42.7357 5.55512 15.3326 -26.1062 6.53443 31.3853 49.9023 -5.49594 -37.5652 1.28944 28.3474 54.778 113.609 12.3355 12.5466 -2.91747 15.828 18.5938 17.8721 -2.83704 6.29514 12.7505 10.9968 0.838031 7.18847 18.5297 7.54217 -1.36903 3.74627 45.0129 -13.3465 -0.17454 -0.523935 0.00159613 0.0240216 0.150511 0.523942 0 -0.163136 -0.523935 0.00149185 1.46538e-006 0.163128 0.523942 0 
-0.103529 -0.0600328 0.0365913 4.90337e-012 -1.40253e-008 -5.10952e-006 0 -0 0 0 -0 0 0 -0 0 -0.711715 0.296795 -3.09223e-012 -12.5048 -6.93065 -42.9708 -12.4395 -23.0426 -21.9875 -4.35224 33.2521 1.21656 -26.7202 -55.8716 121.097 -5.72431 -5.68838 8.21043 -5.12774 -14.9148 -16.8422 4.95093 1.14861 -7.19864 -6.66843 -1.66284 2.65904 -9.97926 -1.52928 2.21815 5.74453 -57.0006 42.7357 5.48184 15.1808 -25.1154 5.76492 31.6491 51.5421 -5.42344 -37.0696 1.27243 28.6168 54.0262 112.488 12.726 12.9931 -2.46712 15.8951 18.8867 17.9216 -2.75736 6.74844 13.3083 11.4778 0.572074 7.84893 18.9138 7.99774 -1.55051 4.39191 44.7359 -12.1286 -0.1631 -0.52087 0.00148281 0.0240216 0.139072 0.520877 0 -0.151695 -0.52087 0.00137912 0 0.151689 0.520877 0 
-0.103582 -0.0600318 0.0367774 -5.19567e-012 -1.2989e-008 -5.10952e-006 0 -0 0 0 -0 0 0 -0 0 -0.711725 0.29694 -3.44578e-012 -12.5048 -6.93065 -42.9708 -12.4395 -23.0426 -21.9875 -4.35224 33.2521 1.21656 -26.7202 -55.8716 121.097 -5.72431 -5.68838 8.21043 -5.12774 -14.9148 -16.8422 4.95093 1.14861 -7.19864 -6.66843 -1.66284 2.65904 -9.97926 -1.52928 2.21815 5.74453 -57.0006 42.7357 5.40583 15.0234 -24.0967 5.00769 31.9393 53.1707 -5.34824 -36.5556 1.25479 28.8862 53.2744 111.367 13.1165 13.4397 -2.01677 15.9621 19.1797 17.9711 -2.67768 7.20175 13.8662 11.9588 0.306118 8.50939 19.2978 8.45331 -1.73199 5.03756 44.459 -10.9107 -0.151379 -0.517562 0.00136751 0.0240216 0.127351 0.517569 0 -0.139973 -0.517562 0.00126449 0 0.139968 0.517569 0 
-0.103638 -0.0600309 0.0369677 2.31475e-012 -1.14139e-008 -5.10952e-006 0 -0 0 0 -0 0 0 -0 0 -0.711736 0.297095 -3.80449e-012 -12.5048 -6.93065 -42.9708 -12.4395 -23.0426 -21.9875 -4.35224 33.2521 1.21656 -26.7202 -55.8716 121.097 -5.72431 -5.68838 8.21043 -5.12774 -14.9148 -16.8422 4.95093 1.14861 -7.19864 -6.66843 -1.66284 2.65904 -9.97926 -1.52928 2.21815 5.74453 -57.0006 42.7357 5.32721 14.8608 -23.0511 4.26551 32.2559 54.7844 -5.27046 -36.0239 1.23654 29.1556 52.5225 110.246 13.507 13.8863 -1.56641 16.0292 19.4726 18.0207 -2.59801 7.65505 14.4241 12.4399 0.040163 9.16985 19.6819 8.90888 -1.91347 5.6832 44.1821 -9.69275 -0.139395 -0.514015 0.00125065 0.0240216 0.115368 0.514022 0 -0.12799 -0.514016 0.00114833 0 0.127985 0.514022 0 
-0.103698 -0.0600299 0.0371618 2.01491e-012 -1.03237e-008 -5.10952e-006 0 -0 0 0 -0 0 0 -0 0 -0.711746 0.297262 -4.16803e-012 -12.5048 -6.93065 -42.9708 -12.4395 -23.0426 -21.9875 -4.35224 33.2521 1.21656 -26.7202 -55.8716 121.097 -5.72431 -5.68838 8.21043 -5.12774 -14.9148 -16.8422 4.95093 1.14861 -7.19864 -6.66843 -1.66284 2.65904 -9.97926 -1.52928 2.21815 5.74453 -57.0006 42.7357 5.24611 14.693 -21.9794 3.541 32.5989 56.3799 -5.19022 -35.4755 1.21771 29.425 51.7707 109.125 13.8976 14.3328 -1.11606 16.0963 19.7656 18.0702 -2.51833 8.10836 14.982 12.9209 -0.225796 9.8303 20.066 9.36445 -2.09495 6.32885 43.9052 -8.47484 -0.12717 -0.510236 0.00113259 0.0240216 0.103144 0.510242 0 -0.115765 -0.510236 0.00103103 8.06816e-007 0.11576 0.510242 0 
-0.103762 -0.060029 0.0373595 -1.31884e-012 -9.7414e-009 -5.10951e-006 0 -0 0 0 -0 0 0 -0 0 -0.711758 0.29744 -4.53455e-012 -12.5048 -6.93065 -42.9708 -12.4395 -23.0426 -21.9875 -4.35224 33.2521 1.21656 -26.7202 -55.8716 121.097 -5.72431 -5.68838 8.21043 -5.12774 -14.9148 -16.8422 4.95093 1.14861 -7.19864 -6.66843 -1.66284 2.65904 -9.97926 -1.52928 2.21815 5.74453 -57.0006 42.7357 5.16265 14.5205 -20.8824 2.8365 32.9681 57.9544 -5.10765 -34.9112 1.19834 29.6944 51.0189 108.004 14.2881 14.7794 -0.665711 16.1634 20.0585 18.1198 -2.43865 8.56166 15.5399 13.4019 -0.491752 10.4908 20.4501 9.82002 -2.27642 6.97449 43.6282 -7.25692 -0.114721 -0.506228 0.00101371 0.0240216 0.0906952 0.506235 0 -0.103316 -0.506229 0.000912946 1.70755e-006 0.10331 0.506235 0 
-0.103829 -0.0600281 0.0375604 -3.55068e-012 -8.61825e-009 -5.10951e-006 0 -0 0 0 -0 0 0 -0 0 -0.711769 0.297629 -4.90374e-012 -12.5048 -6.93065 -42.9708 -12.4395 -23.0426 -21.9875 -4.35224 33.2521 1.21656 -26.7202 -55.8716 121.097 -5.72431 -5.68838 8.21043 -5.12774 -14.9148 -16.8422 4.95093 1.14861 -7.19864 -6.66843 -1.66284 2.65904 -9.97926 -1.52928 2.21815 5.74453 -57.0006 42.7357 5.07694 14.3433 -19.7606 2.15437 33.3635 59.5052 -5.02286 -34.3316 1.17845 29.9639 50.2671 106.884 14.6786 15.226 -0.215359 16.2305 20.3515 18.1693 -2.35897 9.01497 16.0977 13.883 -0.757708 11.1512 20.8341 10.2756 -2.4579 7.62013 43.3513 -6.039 -0.102066 -0.501999 0.000894372 0.0240216 0.0780403 0.502005 0 -0.0906614 -0.501999 0.000794453 2.41484e-006 0.0906553 0.502005 0 
